# xmcd
#
# Track frame offsets:
#	150
#	29072
#	64100
#	87152
#	125167
#	150590
#	175447
#	213165
#	239737
#	259537
#	293852
#
# Disc length: 4436 seconds
#
# Revision: 0
# Processed by: cddbd v1.5.2PL0 Copyright (c) Steve Scherf et al.
# Submitted via: SynApp - FreeCDDB Version: 3.2
#
DISCID=a311520b
DTITLE=Chaka Khan - Life is a Dance
DYEAR=1989
DGENRE=Funk
TTITLE0=Life is a Dance
TTITLE1=I know you, i live you
TTITLE2=This is my night
TTITLE3=Eye to Eye
TTITLE4=Slow dancing
TTITLE5=Fate
TTITLE6=I 'm every woman
TTITLE7=one million kisses
TTITLE8=Ain't nobody
TTITLE9=Clouds
TTITLE10=I Feel for you
EXTD=
EXTT0=
EXTT1=
EXTT2=
EXTT3=
EXTT4=
EXTT5=
EXTT6=
EXTT7=
EXTT8=
EXTT9=
EXTT10=
PLAYORDER=
